<svg width="20" height="20" viewBox="0 0 20 20" fill="none" xmlns="http://www.w3.org/2000/svg">
<g clip-path="url(#clip0)">
<path d="M19.805 10.2305C19.805 9.55068 19.7499 8.86724 19.6323 8.19849H10.2V12.0493H15.6015C15.3773 13.2913 14.6571 14.3899 13.6026 15.0881V17.5867H16.825C18.7174 15.845 19.805 13.2729 19.805 10.2305Z"/>
<path d="M10.2 20.0008C12.8971 20.0008 15.1715 19.1152 16.8287 17.5867L13.6062 15.088C12.7097 15.698 11.5522 16.0434 10.2037 16.0434C7.59483 16.0434 5.38282 14.2833 4.58914 11.917H1.26376V14.4928C2.96136 17.8696 6.41901 20.0008 10.2 20.0008Z"/>
<path d="M4.58546 11.9168C4.16657 10.6748 4.16657 9.32995 4.58546 8.08799V5.51221H1.26376C-0.154572 8.33785 -0.154572 11.6669 1.26376 14.4925L4.58546 11.9168Z"/>
<path d="M10.2 3.95805C11.6257 3.936 13.0036 4.47247 14.0361 5.45722L16.8912 2.60218C15.0833 0.904587 12.6839 -0.0287217 10.2 0.000673888C6.41901 0.000673888 2.96136 2.13185 1.26376 5.51234L4.58546 8.08813C5.37547 5.71811 7.59116 3.95805 10.2 3.95805Z"/>
</g>
<defs>
<clipPath id="clip0">
<rect width="20" height="20"/>
</clipPath>
</defs>
</svg>
